<?xml version="1.0" encoding="UTF-8"?>
<!DOCTYPE svg PUBLIC "-//W3C//DTD SVG 1.1//EN" "http://www.w3.org/Graphics/SVG/1.1/DTD/svg11.dtd">
<!-- Creator: CorelDRAW -->
<svg xmlns="http://www.w3.org/2000/svg" xml:space="preserve" width="128px" height="128px" version="1.1" style="shape-rendering:geometricPrecision; text-rendering:geometricPrecision; image-rendering:optimizeQuality; fill-rule:evenodd; clip-rule:evenodd"
viewBox="0 0 128 128"
 xmlns:xlink="http://www.w3.org/1999/xlink"
 xmlns:xodm="http://www.corel.com/coreldraw/odm/2003">
 <defs>
  <style type="text/css">
   <![CDATA[
    .fil1 {fill:black}
    .fil2 {fill:#C5F551}
    .fil0 {fill:#C9F266}
   ]]>
  </style>
 </defs>
 <g id="Layer_x0020_1">
  <metadata id="CorelCorpID_0Corel-Layer"/>
  <g id="_3057046430784">
   <path class="fil0" d="M0 58.762l0 11.334c0.575,1.075 1.216,7.88 2.412,11.645 2.357,7.423 5.066,13.188 9.411,19.373 7.696,10.955 20.093,20.347 33.271,24.074 5.979,1.692 4.478,1.382 10.038,2.295l1.642 0.517 12.472 0c2.432,-1.026 22.362,-0.955 39.917,-18.522 5.16,-5.164 12.25,-15.104 14.457,-22.13 1.508,-4.8 2.048,-5.136 3.295,-11.353 0.364,-1.813 0.364,-4.838 1.085,-6.193l0 -11.037c-0.336,-0.794 -0.97,-7.802 -2.29,-11.953 -1.361,-4.278 -2.351,-6.99 -4.086,-10.677 -15.928,-33.834 -50.354,-35.377 -51.821,-36.135l-10.205 0c-2.265,0.555 -7.747,0.841 -12.566,2.206 -13.983,3.962 -26.849,12.676 -35.061,24.518 -2.299,3.315 -3.328,5.193 -5.454,9.242 -5.996,11.425 -5.858,21.339 -6.517,22.796z"/>
   <path class="fil1" d="M58.923 1.809c-33.225,2.943 -59.536,30.872 -57.121,67.306 2.16,32.57 31.653,59.932 67.445,57.079 32.713,-2.608 59.733,-31.348 56.948,-67.443 -2.494,-32.317 -31.518,-60.109 -67.272,-56.942z"/>
   <path class="fil2" d="M61.565 39.049c-1.854,0.883 -1.371,0.507 -2.935,3.259l-11.209 19.525c-1.989,3.833 1.194,7.386 4.816,5.766 1.88,-0.84 8.069,-12.584 9.509,-15.135 1.489,-2.639 2.894,-5.075 4.428,-7.739 1.917,-3.329 -0.886,-7.449 -4.609,-5.676z"/>
   <path class="fil2" d="M34.672 55.662c-2.25,1.071 -3.911,5.224 -5.066,7.229 -1.556,2.701 -2.836,5.1 -4.441,7.718 -1.543,2.514 -2.962,5.074 -4.426,7.723 -2.268,4.103 1.206,7.497 4.85,5.819 1.661,-0.764 8.013,-12.624 9.323,-15.005 1.408,-2.561 3.062,-5.171 4.439,-7.722 2.066,-3.827 -1.069,-7.481 -4.679,-5.762z"/>
   <path class="fil2" d="M75.925 55.639c-2.524,1.202 -7.933,12.107 -9.653,15.123 -1.512,2.651 -2.918,5.004 -4.448,7.702 -1.865,3.29 0.791,7.421 4.785,5.741 1.761,-0.742 3.847,-5.24 4.968,-7.192l8.986 -15.647c2.106,-3.791 -1.208,-7.359 -4.638,-5.727z"/>
   <path class="fil2" d="M103.197 41.269c-2.569,0.835 -3.302,3.292 -5.395,6.937 -1.541,2.684 -3.109,5.286 -4.543,7.931 -1.422,2.623 -2.915,5.17 -4.448,7.724 -2.182,3.635 0.275,7.355 4.099,6.345 2.173,-0.574 4.003,-4.898 5.191,-6.989 1.575,-2.773 3.005,-5.15 4.543,-7.941 1.401,-2.541 2.946,-5.184 4.445,-7.705 2.253,-3.787 -0.311,-7.465 -3.892,-6.302z"/>
  </g>
 </g>
</svg>
